<?xml version="1.0" standalone="no"?>
<!DOCTYPE svg PUBLIC "-//W3C//DTD SVG 20010904//EN"
 "http://www.w3.org/TR/2001/REC-SVG-20010904/DTD/svg10.dtd">
<svg version="1.0" xmlns="http://www.w3.org/2000/svg"
 width="500.000000pt" height="500.000000pt" viewBox="0 0 500.000000 500.000000"
 preserveAspectRatio="xMidYMid meet">

<g transform="translate(0.000000,500.000000) scale(0.100000,-0.100000)"
fill="#000000" stroke="none">
<path d="M1426 4150 c-271 -49 -416 -228 -416 -515 0 -81 8 -100 39 -90 19 6
21 13 21 94 0 186 62 311 196 394 75 47 146 61 294 61 120 0 143 -3 208 -26
97 -35 158 -76 234 -157 70 -74 128 -181 156 -286 16 -61 19 -65 45 -65 16 0
34 -6 42 -13 11 -12 5 -16 -37 -25 -66 -16 -67 -15 -61 9 6 21 4 21 -43 15
-42 -7 -413 -72 -609 -107 -33 -6 -141 -26 -240 -43 -165 -30 -180 -35 -183
-54 -5 -32 16 -35 118 -17 50 10 93 15 96 12 3 -2 -16 -8 -41 -12 -30 -4 -45
-11 -42 -18 2 -7 21 -77 41 -157 21 -80 39 -153 42 -162 5 -15 -2 -18 -41 -18
-84 0 -175 -66 -175 -127 0 -10 -32 -50 -71 -88 -98 -96 -226 -250 -272 -326
l-39 -64 6 -100 c4 -55 20 -215 37 -355 53 -442 117 -952 121 -955 12 -12 48
10 48 28 0 11 -20 183 -45 381 -65 521 -105 883 -105 946 0 47 5 63 38 110 58
87 134 177 237 280 71 71 95 102 95 121 0 63 74 107 158 94 60 -9 274 -88 422
-157 216 -101 193 -81 270 -241 168 -350 256 -673 267 -983 l6 -152 -249 -6
c-137 -4 -292 -9 -345 -12 l-96 -6 -22 119 c-63 345 -77 410 -127 608 -48 189
-120 370 -152 383 -8 3 -22 -5 -32 -19 -18 -22 -18 -24 0 -49 68 -95 167 -469
239 -900 7 -41 18 -104 25 -139 l12 -65 109 3 c188 3 684 20 818 27 l127 7 0
-195 0 -196 30 -4 30 -5 0 154 0 153 88 -2 c84 -3 90 -1 192 44 l105 46 3 -44
c2 -24 7 -44 11 -44 5 0 115 20 246 45 132 24 240 43 241 42 8 -7 -51 -129
-90 -187 -70 -106 -175 -178 -283 -195 -40 -6 -43 -9 -43 -37 0 -29 0 -30 43
-23 103 18 204 75 276 157 47 54 115 166 137 227 10 25 42 79 73 120 138 184
606 915 690 1078 17 34 4 53 -38 53 -43 0 -103 -19 -428 -134 -172 -61 -257
-86 -290 -86 -27 0 -134 9 -239 22 l-191 22 -30 -35 c-55 -62 -247 -285 -305
-353 l-58 -68 0 721 0 721 -170 0 -170 0 0 -30 0 -29 143 1 142 1 3 -721 2
-722 -122 -142 c-68 -79 -135 -156 -150 -173 -33 -36 -33 -37 -10 -59 18 -15
23 -12 103 81 46 54 96 111 110 128 15 16 125 145 245 285 121 140 235 272
255 294 l37 40 183 -22 c101 -12 202 -22 223 -22 42 0 138 29 366 111 193 69
292 100 308 97 29 -6 -639 -1031 -683 -1049 -11 -4 -83 -19 -160 -34 -77 -14
-175 -32 -218 -40 -106 -20 -100 -23 -95 40 3 30 3 55 2 55 -2 0 -70 -29 -151
-65 -140 -62 -151 -65 -225 -65 l-78 0 0 51 0 52 -157 -7 -158 -7 -1 138 c-2
275 -69 560 -211 893 -25 58 -56 126 -69 152 -13 26 -24 50 -24 53 0 3 33 5
73 5 l72 0 27 43 c34 54 64 146 79 238 15 94 6 333 -17 451 -9 49 -14 94 -11
102 3 7 19 16 36 19 44 9 131 48 131 58 0 5 36 9 80 9 l80 0 0 -75 0 -75 30 0
30 0 0 75 0 75 660 0 c580 0 660 2 660 15 0 13 -80 15 -660 15 l-660 0 0 160
0 160 -30 0 -30 0 0 -160 0 -160 -67 0 c-47 0 -72 5 -84 16 -11 10 -52 21 -98
27 -78 10 -79 11 -85 42 -10 50 -82 191 -131 255 -81 106 -188 181 -312 220
-77 25 -254 35 -337 20z m691 -709 c14 5 27 8 28 7 1 -2 10 -52 20 -113 26
-152 26 -414 1 -505 -9 -36 -29 -84 -42 -108 -25 -43 -26 -43 -77 -40 l-52 3
-12 104 c-6 57 -14 105 -16 108 -7 7 -28 -127 -23 -145 17 -65 17 -72 -4 -72
-14 0 -20 6 -18 17 5 26 -335 182 -531 243 l-85 27 77 1 c118 1 238 43 314
109 49 43 98 123 119 197 17 60 21 66 45 66 l27 0 0 -93 c1 -117 18 -168 51
-148 9 6 7 30 -13 109 -27 105 -33 177 -16 202 11 16 44 -14 133 -119 l37 -45
1 120 c1 65 4 107 6 92 4 -25 7 -26 30 -17z m-485 -67 c-9 -122 -67 -191 -192
-228 -68 -20 -150 -21 -150 -2 0 9 19 15 58 19 80 9 141 32 181 69 39 37 70
100 71 144 0 33 8 46 24 41 6 -2 9 -21 8 -43z m-85 10 c-3 -3 -12 -4 -19 -1
-8 3 -5 6 6 6 11 1 17 -2 13 -5z m-50 -10 c-3 -3 -12 -4 -19 -1 -8 3 -5 6 6 6
11 1 17 -2 13 -5z m-104 -21 c-7 -2 -21 -2 -30 0 -10 3 -4 5 12 5 17 0 24 -2
18 -5z m-60 -10 c-7 -2 -19 -2 -25 0 -7 3 -2 5 12 5 14 0 19 -2 13 -5z"/>
<path d="M2350 3760 c-58 -38 -107 -75 -109 -81 -2 -6 37 16 85 48 49 33 105
69 124 81 19 12 28 22 20 22 -8 0 -62 -32 -120 -70z"/>
<path d="M3793 3653 c-83 -5 -81 -23 2 -23 51 0 65 3 65 15 0 8 -1 14 -2 13
-2 -1 -31 -3 -65 -5z"/>
<path d="M2410 3100 l0 -30 65 0 65 0 0 30 0 30 -65 0 -65 0 0 -30z"/>
<path d="M2750 3065 c0 -25 13 -30 68 -28 9 1 12 -23 12 -88 l0 -89 30 0 30 0
0 115 0 115 -70 0 c-68 0 -70 -1 -70 -25z"/>
<path d="M3340 2795 l0 -235 -80 0 -80 0 0 130 0 130 -30 0 c-16 0 -30 -4 -30
-10 0 -5 11 -10 25 -10 l25 0 0 -125 0 -125 90 0 90 0 0 235 0 235 55 0 55 0
0 -260 0 -260 55 0 c54 0 55 0 55 -30 l0 -30 80 0 80 0 0 110 0 110 70 0 70 0
0 -91 c0 -49 3 -88 8 -86 4 3 6 46 4 96 l-3 91 -83 0 -82 0 0 -107 1 -108 -65
0 -65 0 -3 33 c-3 31 -4 32 -53 32 l-49 0 0 255 0 255 -70 0 -70 0 0 -235z"/>
<path d="M2950 2931 c0 -24 4 -31 20 -31 19 0 20 -7 20 -95 0 -56 4 -96 10
-96 47 -6 45 -12 45 121 l0 125 -47 3 c-47 3 -48 3 -48 -27z"/>
<path d="M2410 2840 l0 -30 65 0 65 0 0 30 0 30 -65 0 -65 0 0 -30z"/>
<path d="M1185 2729 c-4 -6 -5 -12 -2 -15 2 -3 7 2 10 11 7 17 1 20 -8 4z"/>
<path d="M1144 2695 c-18 -14 -18 -14 4 -8 12 3 22 9 22 14 0 12 -3 11 -26 -6z"/>
<path d="M1092 2649 c-13 -16 -20 -29 -15 -29 9 1 47 50 41 54 -1 2 -13 -10
-26 -25z"/>
<path d="M1650 2670 c0 -5 5 -10 11 -10 5 0 7 5 4 10 -3 6 -8 10 -11 10 -2 0
-4 -4 -4 -10z"/>
<path d="M1687 2649 c7 -7 15 -10 18 -7 3 3 -2 9 -12 12 -14 6 -15 5 -6 -5z"/>
<path d="M2410 2575 l0 -35 65 0 65 0 0 35 0 35 -65 0 -65 0 0 -35z"/>
<path d="M1021 2557 c-13 -21 -12 -21 5 -5 10 10 16 20 13 22 -3 3 -11 -5 -18
-17z"/>
<path d="M1850 2541 c0 -6 4 -13 10 -16 6 -3 7 1 4 9 -7 18 -14 21 -14 7z"/>
<path d="M993 2518 c-20 -26 -26 -41 -15 -34 12 7 36 46 29 46 -3 0 -9 -6 -14
-12z"/>
<path d="M1881 2495 c1 -19 18 -51 18 -35 0 8 -4 22 -9 30 -5 8 -9 11 -9 5z"/>
<path d="M861 2334 c-12 -20 -20 -39 -17 -41 2 -3 14 13 26 36 25 51 20 54 -9
5z"/>
<path d="M1961 2310 c6 -16 15 -30 19 -30 5 0 2 14 -6 30 -9 17 -17 30 -19 30
-2 0 1 -13 6 -30z"/>
<path d="M2410 2310 l0 -30 65 0 65 0 0 30 0 30 -65 0 -65 0 0 -30z"/>
<path d="M2011 2206 c-2 -17 22 -86 30 -86 4 0 2 15 -5 33 -7 17 -16 39 -19
47 -3 8 -6 11 -6 6z"/>
<path d="M861 2114 c0 -11 3 -14 6 -6 3 7 2 16 -1 19 -3 4 -6 -2 -5 -13z"/>
<path d="M2410 2045 l0 -35 65 0 65 0 0 35 0 35 -65 0 -65 0 0 -35z"/>
<path d="M871 2024 c0 -11 3 -14 6 -6 3 7 2 16 -1 19 -3 4 -6 -2 -5 -13z"/>
<path d="M2081 1994 c0 -11 3 -14 6 -6 3 7 2 16 -1 19 -3 4 -6 -2 -5 -13z"/>
<path d="M893 1840 c0 -25 2 -35 4 -22 2 12 2 32 0 45 -2 12 -4 2 -4 -23z"/>
<path d="M2131 1764 c0 -11 3 -14 6 -6 3 7 2 16 -1 19 -3 4 -6 -2 -5 -13z"/>
<path d="M902 1725 c0 -16 2 -22 5 -12 2 9 2 23 0 30 -3 6 -5 -1 -5 -18z"/>
<path d="M2151 1684 c0 -11 3 -14 6 -6 3 7 2 16 -1 19 -3 4 -6 -2 -5 -13z"/>
<path d="M913 1655 c0 -22 2 -30 4 -17 2 12 2 30 0 40 -3 9 -5 -1 -4 -23z"/>
<path d="M2163 1600 c0 -25 2 -35 4 -22 2 12 2 32 0 45 -2 12 -4 2 -4 -23z"/>
<path d="M921 1544 c0 -11 3 -14 6 -6 3 7 2 16 -1 19 -3 4 -6 -2 -5 -13z"/>
<path d="M932 1455 c0 -16 2 -22 5 -12 2 9 2 23 0 30 -3 6 -5 -1 -5 -18z"/>
<path d="M943 1360 c0 -25 2 -35 4 -22 2 12 2 32 0 45 -2 12 -4 2 -4 -23z"/>
<path d="M951 1234 c0 -11 3 -14 6 -6 3 7 2 16 -1 19 -3 4 -6 -2 -5 -13z"/>
<path d="M961 1134 c0 -11 3 -14 6 -6 3 7 2 16 -1 19 -3 4 -6 -2 -5 -13z"/>
<path d="M2452 1110 c0 -14 2 -19 5 -12 2 6 2 18 0 25 -3 6 -5 1 -5 -13z"/>
<path d="M974 1075 c-3 -8 -4 -20 -2 -27 3 -7 7 -1 10 15 6 29 1 36 -8 12z"/>
<path d="M2453 1040 c0 -25 2 -35 4 -22 2 12 2 32 0 45 -2 12 -4 2 -4 -23z"/>
<path d="M1548 993 c23 -2 59 -2 80 0 20 2 1 4 -43 4 -44 0 -61 -2 -37 -4z"/>
<path d="M1933 983 c9 -2 23 -2 30 0 6 3 -1 5 -18 5 -16 0 -22 -2 -12 -5z"/>
<path d="M2128 983 c6 -2 18 -2 25 0 6 3 1 5 -13 5 -14 0 -19 -2 -12 -5z"/>
<path d="M2420 980 l-25 -8 28 -1 c15 -1 27 4 27 9 0 6 -1 10 -2 9 -2 -1 -14
-5 -28 -9z"/>
</g>
</svg>
